<svg width="3482" height="3229" viewBox="0 0 3482 3229" xmlns="http://www.w3.org/2000/svg" xmlns:xlink="http://www.w3.org/1999/xlink"><view viewBox="0 1659.77 554 553"/><svg width="554" height="553" viewBox="-240 -240 554 553" y="1659.77" xmlns="http://www.w3.org/2000/svg"><path fill="#D22856" d="M31 0L0 30.581V73L74 0z"/></svg><view viewBox="1075.28 574.07 541 541"/><svg width="541" height="541" viewBox="-240 -234 541 541" x="1075.28" y="574.07" xmlns="http://www.w3.org/2000/svg"><path fill="#D22856" d="M18.975 6L0 25.062V67L61.09 6z"/></svg><view viewBox="0 0 1680 574.07"/><svg version="1" width="1680" height="574.07" viewBox="-240 -240 1680 574.07" xmlns="http://www.w3.org/2000/svg"><path fill="#f2f2f2" d="M1200 0H0v94.074z"/></svg><view viewBox="0 574.07 1075.28 541.91"/><svg version="1" width="1075.28" height="541.91" viewBox="-240 -240 1075.28 541.91" y="574.07" xmlns="http://www.w3.org/2000/svg"><path fill="#fff" d="M297.64 61.905L0 0h595.28z"/></svg><view viewBox="558.67 1115.98 540 540"/><svg viewBox="-240 -240 540 540" width="540" height="540" x="558.67" y="1115.98" xmlns="http://www.w3.org/2000/svg"><path fill="#2E368F" d="M30.2 5H30L10.3 7.1v36.2L30 55l19.7-11.7V7.1L30.2 5zm17 36.8L30 52 12.8 41.8V27l17.1 10.2V39l-11.7-7v1.8L30 40.9v1.9l-11.8-7v1.8l11.8 7 11.9-7.1v-7.6l5.3-3.2v15.1zm-.1-17l-4.7 2.8-2.2 1.3-10.3-6.1v1.8l8.8 5.3h-.1l-.2.1-1.3.7-7.3-4.3v1.8l5.8 3.4-1.4.9-4.3-2.6v1.8l2.9 1.7-2.9 1.7-17-10.1 17-10.2 17.2 10zm.1-1.8L29.9 12.8 12.8 23V9.4L30 7.6l17.2 1.8V23z"/></svg><view viewBox="2980.08 995.79 488.67 498.94"/><svg version="1" width="488.67" height="498.94" viewBox="-240 -240 488.67 498.94" x="2980.08" y="995.79" xmlns="http://www.w3.org/2000/svg"><path d="M6.275 3.357h2.398V0H5.795C2.656.181 1.54 2.387 1.948 6.115H0v3.517h1.958v9.312h3.837V9.632h2.857V6.115H5.786c-.021-1.045-.036-2.406.489-2.758z" fill="#d22856"/></svg><view viewBox="494.64 2734.76 492.54 491.99"/><svg version="1" width="492.54" height="491.99" viewBox="281.94 233.06 492.55 491.99" x="494.64" y="2734.76" xmlns="http://www.w3.org/2000/svg"><path d="M528.174 485.055a.737.737 0 0 1-.552-.249c-3.798-4.324-4.644-5.298-4.858-5.572h-.004a3.866 3.866 0 0 1-.821-2.373 3.803 3.803 0 0 1 3.799-3.799c.934 0 1.804.32 2.484.898a3.847 3.847 0 0 1 2.463-.898 3.803 3.803 0 0 1 3.799 3.799c0 .909-.318 1.754-.896 2.381l-4.86 5.561a.735.735 0 0 1-.554.252zm-4.245-6.706c.208.255 2.471 2.839 4.243 4.858l4.323-4.944c.34-.369.52-.86.52-1.399a2.333 2.333 0 0 0-2.33-2.331c-.729 0-1.421.344-1.9.943a.76.76 0 0 1-.585.275.727.727 0 0 1-.575-.294 2.333 2.333 0 0 0-1.887-.925 2.333 2.333 0 0 0-2.33 2.331c0 .678.275 1.171.507 1.467l.014.019z" fill="#d22856"/></svg><view viewBox="2980.08 1494.73 497.99 493.97"/><svg width="497.99" height="493.97" viewBox="-240 -240 497.99 493.97" x="2980.08" y="1494.73" xmlns="http://www.w3.org/2000/svg"><path fill="#d22856" d="M14.914 1.814C16.111.816 15.816 0 14.257 0H3.731c-1.56 0-1.854.816-.657 1.814l3.742 3.118c1.197.998 3.158.998 4.355 0l3.743-3.118z"/><path fill="#d22856" d="M11.913 7.044A209.809 209.809 0 0 1 9.695 8.88l-.02.013a1.048 1.048 0 0 1-.235.136c-.033.015-.066.034-.1.048a1.18 1.18 0 0 1-.335.059l-.01.001h-.002l-.01-.001a1.216 1.216 0 0 1-.335-.059c-.034-.014-.068-.033-.1-.048a1.07 1.07 0 0 1-.235-.136l-.02-.013c-.022-.012-1.02-.838-2.218-1.836L2.178 3.796C.979 2.798 0 3.257 0 4.816v6.315a2.842 2.842 0 0 0 2.835 2.835h12.318a2.842 2.842 0 0 0 2.835-2.835V4.816c0-1.559-.979-2.018-2.178-1.02l-3.897 3.248z"/></svg><view viewBox="2458 1570.48 515.98 515.98"/><svg width="515.98" height="515.98" viewBox="-240 -240 515.98 515.98" x="2458" y="1570.48" xmlns="http://www.w3.org/2000/svg"><circle fill="#FFF" cx="17.991" cy="17.991" r="17.991"/><circle fill="#D22856" cx="17.991" cy="17.991" r="7.866"/></svg><view viewBox="1624.88 1115.98 529.94 504.01"/><svg version="1" width="529.94" height="504.01" viewBox="-240 -240 529.95 504.01" x="1624.88" y="1115.98" xmlns="http://www.w3.org/2000/svg"><path fill="#fff" d="M1.137 0C.51 0 0 .428 0 1.01v1.981c0 .558.494 1.01 1.139 1.01H48.81c.628 0 1.138-.428 1.138-1.01V1.01c0-.558-.494-1.01-1.138-1.01H1.137zm0 10.003c-.627 0-1.137.428-1.137 1.01v1.98c0 .557.494 1.01 1.139 1.01H48.81c.628 0 1.138-.428 1.138-1.01v-1.98c0-.558-.494-1.01-1.138-1.01H1.137zm0 10.002C.51 20.005 0 20.434 0 21.016v1.981c0 .557.494 1.01 1.139 1.01H48.81c.628 0 1.138-.428 1.138-1.01v-1.981c0-.558-.494-1.011-1.138-1.011H1.137z"/><path fill="#FFF" d="M1.137 0C.51 0 0 .428 0 1.01v1.981c0 .558.494 1.01 1.139 1.01H48.81c.628 0 1.138-.428 1.138-1.01V1.01c0-.558-.494-1.01-1.138-1.01H1.137zm0 10.003c-.627 0-1.137.428-1.137 1.01v1.98c0 .557.494 1.01 1.139 1.01H48.81c.628 0 1.138-.428 1.138-1.01v-1.98c0-.558-.494-1.01-1.138-1.01H1.137zm0 10.002C.51 20.005 0 20.434 0 21.016v1.981c0 .557.494 1.01 1.139 1.01H48.81c.628 0 1.138-.428 1.138-1.01v-1.981c0-.558-.494-1.011-1.138-1.011H1.137z"/></svg><view viewBox="554 1659.77 529.94 504.01"/><svg version="1" width="529.94" height="504.01" viewBox="-240 -240 529.95 504.01" x="554" y="1659.77" xmlns="http://www.w3.org/2000/svg"><path fill="#5b324a" d="M1.137 0C.51 0 0 .428 0 1.01v1.981c0 .558.494 1.01 1.139 1.01H48.81c.628 0 1.138-.428 1.138-1.01V1.01c0-.558-.494-1.01-1.138-1.01H1.137zm0 10.003c-.627 0-1.137.428-1.137 1.01v1.98c0 .557.494 1.01 1.139 1.01H48.81c.628 0 1.138-.428 1.138-1.01v-1.98c0-.558-.494-1.01-1.138-1.01H1.137zm0 10.002C.51 20.005 0 20.434 0 21.016v1.981c0 .557.494 1.01 1.139 1.01H48.81c.628 0 1.138-.428 1.138-1.01v-1.981c0-.558-.494-1.011-1.138-1.011H1.137z"/><path fill="#5b324a" d="M1.137 0C.51 0 0 .428 0 1.01v1.981c0 .558.494 1.01 1.139 1.01H48.81c.628 0 1.138-.428 1.138-1.01V1.01c0-.558-.494-1.01-1.138-1.01H1.137zm0 10.003c-.627 0-1.137.428-1.137 1.01v1.98c0 .557.494 1.01 1.139 1.01H48.81c.628 0 1.138-.428 1.138-1.01v-1.98c0-.558-.494-1.01-1.138-1.01H1.137zm0 10.002C.51 20.005 0 20.434 0 21.016v1.981c0 .557.494 1.01 1.139 1.01H48.81c.628 0 1.138-.428 1.138-1.01v-1.981c0-.558-.494-1.011-1.138-1.011H1.137z"/></svg><view viewBox="1083.94 1659.77 529.94 504.01"/><svg version="1" width="529.94" height="504.01" viewBox="-240 -240 529.95 504.01" x="1083.94" y="1659.77" xmlns="http://www.w3.org/2000/svg"><path fill="#d22856" d="M1.137 0C.51 0 0 .428 0 1.01v1.981c0 .558.494 1.01 1.139 1.01H48.81c.628 0 1.138-.428 1.138-1.01V1.01c0-.558-.494-1.01-1.138-1.01H1.137zm0 10.003c-.627 0-1.137.428-1.137 1.01v1.98c0 .557.494 1.01 1.139 1.01H48.81c.628 0 1.138-.428 1.138-1.01v-1.98c0-.558-.494-1.01-1.138-1.01H1.137zm0 10.002C.51 20.005 0 20.434 0 21.016v1.981c0 .557.494 1.01 1.139 1.01H48.81c.628 0 1.138-.428 1.138-1.01v-1.981c0-.558-.494-1.011-1.138-1.011H1.137z"/><path fill="#d22856" d="M1.137 0C.51 0 0 .428 0 1.01v1.981c0 .558.494 1.01 1.139 1.01H48.81c.628 0 1.138-.428 1.138-1.01V1.01c0-.558-.494-1.01-1.138-1.01H1.137zm0 10.003c-.627 0-1.137.428-1.137 1.01v1.98c0 .557.494 1.01 1.139 1.01H48.81c.628 0 1.138-.428 1.138-1.01v-1.98c0-.558-.494-1.01-1.138-1.01H1.137zm0 10.002C.51 20.005 0 20.434 0 21.016v1.981c0 .557.494 1.01 1.139 1.01H48.81c.628 0 1.138-.428 1.138-1.01v-1.981c0-.558-.494-1.011-1.138-1.011H1.137z"/></svg><view viewBox="1030.67 2212.77 503.87 503.87"/><svg version="1" width="503.87" height="503.87" viewBox="-240 -240 503.87 503.87" x="1030.67" y="2212.77" xmlns="http://www.w3.org/2000/svg"><path fill="#fff" d="M15.087 11.933l8.56-8.559a.75.75 0 0 0 0-1.061L21.554.22a.747.747 0 0 0-1.06 0l-8.561 8.56L3.373.22a.771.771 0 0 0-1.061 0L.22 2.313a.75.75 0 0 0 0 1.061l8.56 8.559-8.56 8.559a.751.751 0 0 0 0 1.062l2.093 2.094a.744.744 0 0 0 1.06 0l8.561-8.56 8.56 8.56a.746.746 0 0 0 1.06 0l2.093-2.094a.751.751 0 0 0 0-1.062l-8.56-8.559z"/></svg><view viewBox="1613.88 1659.77 503.87 503.87"/><svg version="1" width="503.87" height="503.87" viewBox="-240 -240 503.87 503.87" x="1613.88" y="1659.77" xmlns="http://www.w3.org/2000/svg"><path fill="#5b324a" d="M15.087 11.933l8.56-8.559a.75.75 0 0 0 0-1.061L21.554.22a.747.747 0 0 0-1.06 0l-8.561 8.56L3.373.22a.771.771 0 0 0-1.061 0L.22 2.313a.75.75 0 0 0 0 1.061l8.56 8.559-8.56 8.559a.751.751 0 0 0 0 1.062l2.093 2.094a.744.744 0 0 0 1.06 0l8.561-8.56 8.56 8.56a.746.746 0 0 0 1.06 0l2.093-2.094a.751.751 0 0 0 0-1.062l-8.56-8.559z"/></svg><view viewBox="1534.54 2212.77 503.87 503.87"/><svg version="1" width="503.87" height="503.87" viewBox="-240 -240 503.87 503.87" x="1534.54" y="2212.77" xmlns="http://www.w3.org/2000/svg"><path fill="#d22856" d="M15.087 11.933l8.56-8.559a.75.75 0 0 0 0-1.061L21.554.22a.747.747 0 0 0-1.06 0l-8.561 8.56L3.373.22a.771.771 0 0 0-1.061 0L.22 2.313a.75.75 0 0 0 0 1.061l8.56 8.559-8.56 8.559a.751.751 0 0 0 0 1.062l2.093 2.094a.744.744 0 0 0 1.06 0l8.561-8.56 8.56 8.56a.746.746 0 0 0 1.06 0l2.093-2.094a.751.751 0 0 0 0-1.062l-8.56-8.559z"/></svg><view viewBox="523.92 2212.77 506.75 506.75"/><svg version="1" width="506.75" height="506.75" viewBox="-240 -240 506.75 506.75" x="523.92" y="2212.77" xmlns="http://www.w3.org/2000/svg"><path d="M15.497 13.376L26.312 2.562A1.5 1.5 0 1 0 24.191.441L13.376 11.255 2.562.439A1.5 1.5 0 1 0 .441 2.56l10.814 10.815L.439 24.19a1.5 1.5 0 1 0 2.122 2.121l10.815-10.814L24.19 26.312c.293.293.677.439 1.061.439s.768-.146 1.061-.439a1.5 1.5 0 0 0 0-2.121L15.497 13.376z" fill="#f25b26"/></svg><view viewBox="2980.08 496.09 499.7 499.7"/><svg width="499.7" height="499.7" viewBox="-240 -240 499.7 499.7" x="2980.08" y="496.09" xmlns="http://www.w3.org/2000/svg"><path fill="#d22856" d="M9.848 0C6.34 0 2.823.628 1.546 1.878.488 2.918.134 4.752.016 5.913c0 0-.016.115-.016.165 0 .454.369.82.819.82.054 0 2.028-.161 3.218-.259a.503.503 0 0 0 .086-.017.821.821 0 0 0 .801-.819l.003-1.617c0-.5.407-.902.907-.902h8.027c.499 0 .907.402.907.902l.003 1.617a.82.82 0 0 0 .802.82.474.474 0 0 0 .085.017c1.19.098 3.164.259 3.217.259a.822.822 0 0 0 .822-.82c0-.05-.018-.165-.018-.165-.118-1.161-.472-2.995-1.53-4.035C16.873.628 13.356 0 9.848 0zm0 10.67a1.64 1.64 0 1 0 0 3.281 1.64 1.64 0 1 0 0-3.281zM8.616 6.975V5.951a1.024 1.024 0 1 0-2.049 0v1.024L1.03 12.888a2.054 2.054 0 0 0-.619 1.47v1.646c0 .907.734 1.643 1.641 1.643h.411v1.023a1.026 1.026 0 1 0 2.05 0v-1.023h10.669v1.023a1.025 1.025 0 1 0 2.051 0v-1.023h.411c.905 0 1.64-.735 1.64-1.643v-1.646c0-.576-.236-1.094-.618-1.47L13.13 6.975V5.951a1.025 1.025 0 1 0-2.051 0v1.024H8.616zm1.232 2.053c1.814 0 3.282 1.468 3.282 3.282s-1.468 3.282-3.282 3.282c-1.813 0-3.281-1.468-3.281-3.282s1.467-3.282 3.281-3.282z"/></svg><view viewBox="0 1115.98 558.67 543.79"/><svg width="558.67" height="543.79" viewBox="-240 -240 558.67 543.79" y="1115.98" xmlns="http://www.w3.org/2000/svg"><path d="M34.967 7.063L30.713 0C28.272 1.495 0 12.207 0 39.617c0 7.231.336 24.172 18.9 24.172 11.187 0 13.94-10.279 13.94-13.584 0-21.977-21.382-14.177-21.382-14.177 0-18.071 19.805-26.844 23.509-28.965zm43.705 0L74.418 0c-2.44 1.495-30.713 12.207-30.713 39.617 0 7.231.337 24.172 18.9 24.172 11.187 0 13.939-10.279 13.939-13.584 0-21.977-21.381-14.177-21.381-14.177.002-18.071 19.806-26.844 23.509-28.965z" fill="#efefef"/></svg><view viewBox="2458 527.04 501.71 521.72"/><svg width="501.71" height="521.72" viewBox="-240 -240 501.71 521.72" x="2458" y="527.04" xmlns="http://www.w3.org/2000/svg"><path d="M2.045 20.859L21.458 1.446A.847.847 0 0 0 20.261.248L.248 20.261a.846.846 0 0 0 0 1.197l20.013 20.013a.843.843 0 0 0 1.198 0 .847.847 0 0 0 0-1.198L2.045 20.859z" fill="#283645"/></svg><view viewBox="2458 1048.76 501.71 521.72"/><svg width="501.71" height="521.72" viewBox="-240 -240 501.71 521.72" x="2458" y="1048.76" xmlns="http://www.w3.org/2000/svg"><path d="M19.661 20.859L.248 1.446A.847.847 0 0 1 1.445.248L21.458 20.26c.33.33.33.867 0 1.197L1.445 41.471a.843.843 0 0 1-1.198 0 .847.847 0 0 1 0-1.198l19.414-19.414z" fill="#283645"/></svg><view viewBox="1680 0 778 825.1"/><svg width="778" height="825.1" viewBox="-240 -240 778 825.1" x="1680" xmlns="http://www.w3.org/2000/svg"><path d="M264.568 102.055l5.355-5.355c7.717-7.717 9.124-18.938 3.126-24.935-5.997-5.997-17.217-4.59-24.934 3.127l-5.386 5.385C221.768 63.292 196.11 51.875 168 48.297v-9.583h7.658c10.914 0 19.843-8.711 19.843-19.357S186.573 0 175.659 0h-53.317C111.429 0 102.5 8.711 102.5 19.357s8.929 19.357 19.842 19.357H130v9.583C56.681 57.629 0 120.244 0 196.097c0 82.291 66.709 149 149 149 82.29 0 149-66.709 149-149 0-35.663-12.535-68.394-33.432-94.042zM149 306.264c-60.844 0-110.167-49.323-110.167-110.167S88.156 85.93 149 85.93c60.843 0 110.167 49.323 110.167 110.167S209.843 306.264 149 306.264z" fill="#dedede"/></svg><view viewBox="2980.08 1988.7 497.5 494.66"/><svg version="1" width="497.5" height="494.66" viewBox="-240 -240 497.5 494.66" x="2980.08" y="1988.7" xmlns="http://www.w3.org/2000/svg"><path fill-rule="evenodd" clip-rule="evenodd" d="M11.283.153c1.736-.485 3.074.263 3.685 1.151.694-.226 1.372-.47 2.072-.691-.004.841-.538 1.478-.883 1.727.704.166 1.343-.48 1.343-.48-.175.976-1.035 1.746-1.611 1.977-.239 6.592-3.272 10.956-10.382 10.823h-.46c-.422 0-4.29-.45-5.047-1.843 2.341.192 4.011-.412 4.835-1.15-.989-.293-2.761-.464-3.07-2.881.362.105.583.223 1.228.117C1.757 8.067.385 7.366.461 5.218c.294.32 1.1.523 1.381.461C1.117 5.444-.188 2.398.921.843 2.794 2.654 4.769 4.364 8.29 4.528 8.506 2.288 9.461.787 11.283.153z" fill="#d22856"/></svg><view viewBox="2038.4099999999999 2212.77 501.7 496.09"/><svg version="1" width="501.7" height="496.09" viewBox="-322.36 -235.12 501.7 496.09" x="2038.41" y="2212.77" xmlns="http://www.w3.org/2000/svg"><path d="M-60.953 5.167a.999.999 0 0 0-1.414 0L-75.75 18.551l-4.9-4.9a.999.999 0 1 0-1.414 1.414l5.607 5.607a.997.997 0 0 0 1.414 0l14.09-14c.391-.481.391-1.114 0-1.505z" fill="#3dc644"/></svg><view viewBox="2980.08 0 501.7 496.09"/><svg version="1" width="501.7" height="496.09" viewBox="-322.36 -235.12 501.7 496.09" x="2980.08" xmlns="http://www.w3.org/2000/svg"><path d="M-60.953 5.167a.999.999 0 0 0-1.414 0L-75.75 18.551l-4.9-4.9a.999.999 0 1 0-1.414 1.414l5.607 5.607a.997.997 0 0 0 1.414 0l14.09-14c.391-.481.391-1.114 0-1.505z" fill="#d22856"/></svg><view viewBox="0 2734.76 494.64 493.96"/><svg version="1" width="494.64" height="493.96" viewBox="-240 -240 494.64 493.96" y="2734.76" xmlns="http://www.w3.org/2000/svg"><path d="M1.775 13.78C.799 14.257 0 13.758 0 12.671V1.29C0 .202.799-.295 1.775.181l12.133 5.932c.975.478.975 1.258 0 1.736L1.775 13.78z" fill="#d22856"/></svg><view viewBox="2458 0 522.08 527.04"/><svg width="522.08" height="527.04" viewBox="-240 -240 522.08 527.04" x="2458" xmlns="http://www.w3.org/2000/svg"><path fill="#A4C639" d="M34.144 14.009H7.945c-.009.11-.018.22-.018.333v18.755c0 1.926 1.457 3.49 3.316 3.627v7.43a2.884 2.884 0 1 0 5.77 0v-7.42h8.058v7.42a2.884 2.884 0 0 0 2.885 2.885 2.884 2.884 0 0 0 2.886-2.885V36.72c1.858-.137 3.315-1.701 3.315-3.627V14.342c0-.113-.004-.223-.013-.333zm-31.258 1.67a2.886 2.886 0 0 1 2.886 2.885v12.378a2.885 2.885 0 1 1-5.772 0V18.564a2.885 2.885 0 0 1 2.886-2.885zm36.312 0a2.885 2.885 0 0 1 2.886 2.885v12.378a2.885 2.885 0 0 1-2.886 2.886 2.884 2.884 0 0 1-2.885-2.886V18.564a2.884 2.884 0 0 1 2.885-2.885zM8.03 11.967h26.026c-.039-2.783-1.234-5.322-3.187-7.275L33.315.457a.304.304 0 1 0-.527-.304L30.416 4.26c-2.052-1.853-6.249-3.4-9.374-3.4-3.016 0-7.322 1.547-9.374 3.4L9.296.152a.304.304 0 0 0-.526.304l2.445 4.235c-1.95 1.954-3.147 4.493-3.185 7.276zm17.293-5.163c-.002-.805.664-1.46 1.488-1.462.826-.002 1.494.648 1.498 1.454v.008c.002.805-.664 1.46-1.49 1.462-.823.002-1.493-.649-1.496-1.454v-.008zm-11.143 0c-.001-.805.665-1.46 1.489-1.462.824-.002 1.494.648 1.497 1.454v.008c.002.805-.664 1.46-1.488 1.462-.825.002-1.495-.649-1.498-1.454v-.008z"/></svg><view viewBox="1098.67 1115.98 526.21 536.75"/><svg version="1" width="526.21" height="536.75" viewBox="-240 -240 526.21 536.75" x="1098.67" y="1115.98" xmlns="http://www.w3.org/2000/svg"><path fill="#FFF" d="M38.593 30.15c.081 8.59 7.535 11.447 7.617 11.483-.062.202-1.19 4.073-3.927 8.072-2.365 3.457-4.82 6.901-8.688 6.973-3.799.07-5.021-2.253-9.365-2.253s-5.702 2.182-9.298 2.32c-3.733.142-6.576-3.739-8.961-7.184-4.875-7.046-8.598-19.91-3.597-28.593 2.484-4.313 6.925-7.043 11.743-7.114 3.666-.069 7.126 2.466 9.366 2.466 2.241 0 6.444-3.049 10.865-2.601 1.85.077 7.044.747 10.38 5.629-.269.171-6.197 3.623-6.135 10.802m-7.14-21.088c1.982-2.4 3.316-5.739 2.952-9.062-2.857.115-6.312 1.904-8.36 4.302-1.837 2.123-3.445 5.521-3.011 8.778 3.184.246 6.436-1.619 8.419-4.018"/></svg><view viewBox="0 2212.77 523.92 521.99"/><svg version="1" width="523.92" height="521.99" viewBox="-240 -240 523.92 521.99" y="2212.77" xmlns="http://www.w3.org/2000/svg"><path fill="#F05423" d="M20.874 19.953H0V0h20.874v19.953z"/><path fill="#84C441" d="M43.922 19.953H23.049V0h20.873v19.953z"/><path fill="#2DABE2" d="M20.873 41.992H0V22.04h20.873v19.952z"/><path fill="#F9BC15" d="M43.922 41.992H23.049V22.04h20.873v19.952z"/></svg></svg>